<?xml version="1.0" encoding="UTF-8" standalone="no"?>
<svg
   xmlns:dc="http://purl.org/dc/elements/1.1/"
   xmlns:cc="http://creativecommons.org/ns#"
   xmlns:rdf="http://www.w3.org/1999/02/22-rdf-syntax-ns#"
   xmlns:svg="http://www.w3.org/2000/svg"
   xmlns="http://www.w3.org/2000/svg"
   xmlns:sodipodi="http://sodipodi.sourceforge.net/DTD/sodipodi-0.dtd"
   xmlns:inkscape="http://www.inkscape.org/namespaces/inkscape"
   inkscape:export-ydpi="171.42857"
   inkscape:export-xdpi="171.42857"
   inkscape:export-filename="/home/hannes/Repository/sensor-net-web-app/src/assets/logo.png"
   inkscape:version="1.0 (4035a4fb49, 2020-05-01)"
   height="112"
   width="112"
   sodipodi:docname="logo.svg"
   version="1.1"
   viewBox="0 0 112 112"
   data-name="Layer 1"
   id="Layer_1">
  <metadata
     id="metadata19">
    <rdf:RDF>
      <cc:Work
         rdf:about="">
        <dc:format>image/svg+xml</dc:format>
        <dc:type
           rdf:resource="http://purl.org/dc/dcmitype/StillImage" />
        <dc:title>Artboard 46</dc:title>
      </cc:Work>
    </rdf:RDF>
  </metadata>
  <sodipodi:namedview
     inkscape:current-layer="Layer_1"
     inkscape:window-maximized="1"
     inkscape:window-y="0"
     inkscape:window-x="0"
     inkscape:cy="45.287"
     inkscape:cx="53.741504"
     inkscape:zoom="3.3658283"
     fit-margin-bottom="0"
     fit-margin-right="0"
     fit-margin-left="0"
     fit-margin-top="0"
     showgrid="false"
     id="namedview17"
     inkscape:window-height="709"
     inkscape:window-width="1366"
     inkscape:pageshadow="2"
     inkscape:pageopacity="0"
     guidetolerance="10"
     gridtolerance="10"
     objecttolerance="10"
     borderopacity="1"
     bordercolor="#666666"
     pagecolor="#ffffff" />
  <defs
     id="defs4">
    <inkscape:path-effect
       split_items="false"
       mirror_copies="false"
       copies_to_360="true"
       gap="-0.01"
       rotation_angle="60"
       starting_angle="0"
       num_copies="6"
       method="normal"
       lpeversion="1"
       is_visible="true"
       id="path-effect855"
       origin="45,75"
       starting_point="48.991597,75"
       effect="copy_rotate" />
    <style
       id="style2">.cls-1{fill:#1697f6;}.cls-2{fill:#7bc6ff;}.cls-3{fill:#1867c0;}.cls-4{fill:#aeddff;}</style>
  </defs>
  <title
     id="title6">Artboard 46</title>
  <g
     transform="translate(0.0527775,10.782718)"
     id="g871">
    <g
       id="g865"
       transform="translate(10.926215,-11.065435)">
      <path
         sodipodi:nodetypes="cccc"
         d="m 75,40 v 60 H 15 V 40"
         style="color:#000000;overflow:visible;fill:none;stroke:#000000;stroke-width:3;stroke-linecap:round;stroke-linejoin:round;stroke-miterlimit:4;stroke-dasharray:none;stroke-opacity:1"
         id="rect844" />
      <path
         sodipodi:nodetypes="ccc"
         d="M -9.426215,61.012606 45.021007,12.565384 99.46823,61.012606"
         style="color:#000000;overflow:visible;fill:none;stroke:#000000;stroke-width:3;stroke-linecap:round;stroke-linejoin:round;stroke-miterlimit:4;stroke-dasharray:none;stroke-opacity:1"
         id="rect846" />
    </g>
    <path
       id="path850"
       style="color:#000000;overflow:visible;fill:none;stroke:#000000;stroke-width:3;stroke-linecap:round;stroke-linejoin:round;stroke-miterlimit:4;stroke-dasharray:none;stroke-opacity:1"
       d="m 52.070211,34.346267 -1.019127,7.121518 a 16.613702,16.601664 0 0 0 -6.405601,3.694063 l -6.677208,-2.680477 -3.879416,6.713202 5.662889,4.43864 a 16.613702,16.601664 0 0 0 -0.418227,3.696464 16.613702,16.601664 0 0 0 0.418227,3.696463 l -5.662889,4.43864 3.879416,6.713202 6.677208,-2.680477 a 16.613702,16.601664 0 0 0 6.405601,3.694063 l 1.019127,7.121518 h 7.754024 l 1.019127,-7.121518 a 16.613702,16.601664 0 0 0 6.405601,-3.694063 l 6.677208,2.680477 3.879416,-6.713202 -5.662889,-4.43864 a 16.613702,16.601664 0 0 0 0.418227,-3.696463 16.613702,16.601664 0 0 0 -0.418227,-3.696464 l 5.662889,-4.43864 -3.879416,-6.713202 -6.677208,2.680477 a 16.613702,16.601664 0 0 0 -6.405601,-3.694063 l -1.019127,-7.121518 z m 3.877012,16.834645 a 6.153223,6.1487645 0 0 1 6.153223,6.148765 6.153223,6.1487645 0 0 1 -6.153223,6.148764 6.153223,6.1487645 0 0 1 -6.153223,-6.148764 6.153223,6.1487645 0 0 1 6.153223,-6.148765 z" />
  </g>
</svg>
